HIERARCHY
ROOT Hip
{
  OFFSET 0.0 0.0 0.0
  CHANNELS 6 Xposition Yposition Zposition Xrotation Yrotation Zrotation
  JOINT LowerSpine
  {
    OFFSET 0.0 0.061367 -0.03653
    CHANNELS 3 Xrotation Yrotation Zrotation
    JOINT MiddleSpine
    {
      OFFSET 0.0 0.056002 0.002633
      CHANNELS 3 Xrotation Yrotation Zrotation
      JOINT Chest
      {
        OFFSET 0.0 0.069296 -0.013882
        CHANNELS 3 Xrotation Yrotation Zrotation
        JOINT Neck
        {
          OFFSET 0.0 0.156156 -0.002923
          CHANNELS 3 Xrotation Yrotation Zrotation
          JOINT Head
          {
            OFFSET 0.0 0.088183 0.023986
            CHANNELS 3 Xrotation Yrotation Zrotation
            End Site
            {
              OFFSET 1e-06 0.123215 0.003678
            }
          }
        }
        JOINT LClavicle
        {
          OFFSET 0.014189 0.150698 0.046467
          CHANNELS 3 Xrotation Yrotation Zrotation
          JOINT LShoulder
          {
            OFFSET 0.082893 0.021616 -0.034976
            CHANNELS 3 Xrotation Yrotation Zrotation
            JOINT LForearm
            {
              OFFSET 0.195645 -0.000695 -0.001695
              CHANNELS 3 Xrotation Yrotation Zrotation
              JOINT LHand
              {
                OFFSET 0.163209 0.000474 -0.000977
                CHANNELS 3 Xrotation Yrotation Zrotation
                End Site
                {
                  OFFSET 0.0 0.006864 0.0
                }
              }
            }
          }
        }
        JOINT RClavicle
        {
          OFFSET -0.014189 0.150698 0.046467
          CHANNELS 3 Xrotation Yrotation Zrotation
          JOINT RShoulder
          {
            OFFSET -0.082908 0.021619 -0.034982
            CHANNELS 3 Xrotation Yrotation Zrotation
            JOINT RForearm
            {
              OFFSET -0.195645 -0.000695 -0.001695
              CHANNELS 3 Xrotation Yrotation Zrotation
              JOINT RHand
              {
                OFFSET -0.163209 0.000474 -0.000977
                CHANNELS 3 Xrotation Yrotation Zrotation
                End Site
                {
                  OFFSET 0.0 0.006864 0.0
                }
              }
            }
          }
        }
      }
    }
  }
  JOINT RThigh
  {
    OFFSET -0.072558 0.02774 -0.005953
    CHANNELS 3 Xrotation Yrotation Zrotation
    JOINT RShin
    {
      OFFSET -0.005253 -0.285537 0.0
      CHANNELS 3 Xrotation Yrotation Zrotation
      JOINT RFoot
      {
        OFFSET 0.0 -0.28038 0.0
        CHANNELS 3 Xrotation Yrotation Zrotation
        JOINT RToe
        {
          OFFSET 0.0 -0.030816 0.064441
          CHANNELS 3 Xrotation Yrotation Zrotation
          End Site
          {
            OFFSET 0.0 0.0 0.043231
          }
        }
      }
    }
  }
  JOINT LThigh
  {
    OFFSET 0.072557 0.027741 -0.005953
    CHANNELS 3 Xrotation Yrotation Zrotation
    JOINT LShin
    {
      OFFSET 0.005253 -0.285539 0.0
      CHANNELS 3 Xrotation Yrotation Zrotation
      JOINT LFoot
      {
        OFFSET 0.0 -0.28038 0.0
        CHANNELS 3 Xrotation Yrotation Zrotation
        JOINT LToe
        {
          OFFSET 0.0 -0.030816 0.064441
          CHANNELS 3 Xrotation Yrotation Zrotation
          End Site
          {
            OFFSET 0.0 0.0 0.043231
          }
        }
      }
    }
  }
}
MOTION
Frames: 10
Frame Time: 0.03333333333333333
0.024733 0.59405 -0.000268 -0.683716 -2.892624 -0.420272 -0.690348 -0.231719 -0.234188 0.656149 1.720542 -0.112766 0.036717 2.629814 -1.562488 -1.740363 0.122917 0.091906 0.017754 0.040507 0.009852 0.298472 -0.265981 -13.735235 20.791046 -28.216024 -52.996803 11.850464 -32.187756 -0.815503 0.156236 0.18041 -0.106771 0.204998 -0.767291 12.455125 17.495789 31.212103 56.684513 5.550985 43.840363 -0.358246 0.153926 -0.309983 0.015581 -2.44698 -0.621975 0.871724 4.896922 -1.042891 0.220949 -2.175707 1.947031 0.810762 0.208389 0.636809 0.094906 3.593252 8.076307 5.400564 4.700823 8.520834 -3.655975 -2.37036 0.930761 0.532503 0.044984 -0.204358 -0.034578 
0.023358 0.588475 0.001871 -1.771769 -4.763031 0.632679 -0.466929 0.073958 0.5938 0.404599 1.116614 -0.122465 1.171938 2.963052 -3.380923 -0.643003 0.069116 -0.268992 0.026915 -0.125433 -0.025072 -0.367687 -0.315027 -14.570603 21.498625 -26.187719 -53.340057 11.151339 -28.438583 -0.198092 0.085419 0.106014 -0.075425 -0.313818 0.625215 12.242831 16.337719 27.220543 54.375832 3.085105 54.110943 2.500662 -0.118764 -0.150288 0.002229 -1.071321 0.987645 0.688465 6.208774 0.836184 -1.369933 -0.913168 1.752062 0.839962 -0.019663 0.249457 0.107277 7.444762 10.840263 4.128714 2.888593 9.039355 -3.280591 -2.201911 0.954655 0.831647 0.075764 -0.171866 -0.054309 
0.016773 0.584731 -0.000671 -2.251706 -2.333771 1.011302 -0.299758 0.040823 0.476298 0.216311 0.82506 -0.171439 1.659393 2.354397 -3.832501 -0.36513 0.073081 -0.150548 0.017764 -0.153521 -0.040747 -0.423087 -0.486278 -14.340466 22.038628 -25.374125 -53.001987 11.529876 -29.575378 -0.123456 0.051459 0.078698 -0.043959 -0.477052 1.463412 12.193164 17.839582 27.755877 54.458889 1.958899 60.496666 6.015649 -0.117598 -0.145541 0.001756 -1.259837 0.533726 -0.158508 5.939109 0.639128 -0.952529 -0.875863 1.77107 0.784711 -0.027855 0.147993 0.08596 6.579521 10.9537 4.455732 3.749291 9.006603 -3.227937 -2.120183 0.723067 0.652245 0.070083 -0.112352 -0.039632 
0.013562 0.583808 0.001809 -2.406067 -1.110387 1.141759 -0.245931 -6.1e-05 0.45501 0.175437 0.731094 -0.147164 1.87654 2.336754 -4.032466 -0.24159 0.092613 -0.060228 0.01599 -0.173945 -0.043 -0.403131 -0.485351 -14.345402 22.021006 -25.006363 -53.284527 11.331486 -29.579426 -0.389317 0.044554 0.075206 -0.032999 -0.469814 1.707185 12.368538 17.544559 28.454601 55.082138 1.030673 60.882545 7.749543 -0.131004 -0.124019 -0.002282 -1.484559 0.466561 -0.303892 6.263334 0.532739 -0.949908 -1.020932 1.643676 0.714349 -0.027391 0.121481 0.081938 6.148436 11.330314 4.492473 4.205093 9.080978 -3.23175 -2.206512 0.665763 0.628341 0.066709 -0.089124 -0.034012 
0.013009 0.583108 0.001204 -2.65491 -1.123334 1.230248 -0.112001 -0.03672 0.411517 0.130701 0.721259 -0.120304 1.937107 2.718724 -3.999614 -0.121626 0.111406 0.004321 0.013269 -0.177646 -0.041893 -0.374548 -0.437888 -14.136564 21.674635 -25.01856 -53.346066 11.261737 -29.527872 -0.551956 0.042104 0.074114 -0.029867 -0.486302 1.732066 12.508011 16.572859 29.877464 55.870235 2.418153 57.076595 7.500128 -0.137062 -0.109051 -0.004082 -1.641992 0.492313 -0.406995 6.795185 0.442804 -0.797857 -1.133614 1.519481 0.668991 -0.030453 0.114084 0.078213 6.006498 11.904587 4.504699 4.336186 9.238132 -3.291744 -2.325015 0.587564 0.596022 0.061114 -0.079683 -0.032041 
0.011102 0.582272 -0.002364 -2.93812 -1.560333 1.300323 0.053493 -0.076715 0.371461 0.060439 0.713517 -0.090076 1.829459 3.114264 -3.861469 0.012497 0.133924 0.056048 0.011159 -0.185397 -0.040492 -0.388381 -0.446483 -13.794023 21.19895 -25.131971 -53.431477 11.121059 -29.498833 -0.519401 0.041323 0.073482 -0.029616 -0.55818 1.764251 12.611532 15.475825 31.207138 56.705811 4.595436 51.613037 6.443769 -0.152533 -0.095753 -0.006255 -1.887031 0.493278 -0.370243 7.398739 0.337647 -0.634081 -1.216845 1.412282 0.621173 -0.038853 0.107761 0.077628 5.826133 12.321213 4.603846 4.415736 9.292649 -3.416212 -2.4405 0.503751 0.553268 0.058598 -0.078411 -0.033765 
0.009222 0.581195 -0.007788 -2.894948 -2.404153 1.280235 0.223916 -0.117467 0.313729 -0.038053 0.69594 -0.070279 1.404316 3.382133 -3.616988 0.125559 0.158796 0.09342 0.009879 -0.176617 -0.03761 -0.381155 -0.448999 -13.387962 20.715267 -25.406851 -53.386383 11.033783 -29.586948 -0.522976 0.041409 0.072255 -0.031651 -0.587557 1.662615 12.66988 14.318151 32.899242 57.397804 6.632127 45.279705 5.277919 -0.149662 -0.092514 -0.006084 -2.406971 0.366455 -0.312466 7.972139 0.126163 -0.362354 -1.25801 1.290004 0.56262 -0.040861 0.114374 0.077016 5.279773 12.655499 4.793253 4.615599 9.461956 -3.613778 -2.507243 0.415774 0.483473 0.055729 -0.076974 -0.034192 
0.008041 0.58026 -0.013274 -2.574626 -3.210803 1.314561 0.368495 -0.14497 0.25778 -0.172839 0.666035 -0.073855 0.811377 3.497309 -3.407444 0.2424 0.177367 0.119645 0.008488 -0.167434 -0.033366 -0.407764 -0.454422 -12.984818 20.470425 -25.66251 -53.32201 11.030309 -29.735209 -0.545909 0.038509 0.066991 -0.028816 -0.622532 1.61027 12.717726 13.337839 34.375355 57.864693 8.0459 39.488548 4.401433 -0.144879 -0.085625 -0.004953 -3.278432 0.268696 -0.284007 8.656716 -0.05358 -0.106886 -1.306417 1.141865 0.49461 -0.039789 0.114374 0.07483 4.411033 12.984124 5.034026 4.978886 9.716314 -3.901474 -2.534132 0.333014 0.40987 0.050464 -0.070896 -0.033101 
0.008012 0.579724 -0.017988 -2.067462 -3.64636 1.378273 0.470766 -0.163007 0.200489 -0.30743 0.641246 -0.091544 0.207725 3.522082 -3.256918 0.334184 0.181117 0.135414 0.006552 -0.153574 -0.03012 -0.430655 -0.42303 -12.598363 20.437662 -25.810425 -53.265186 11.124104 -30.216576 -0.608742 0.034543 0.059322 -0.024251 -0.647817 1.547939 12.78816 12.578737 35.658772 58.206375 8.923823 34.480656 3.777999 -0.130541 -0.08089 -0.00282 -4.364517 0.264203 -0.327725 9.371082 -0.176097 0.133561 -1.364489 0.99588 0.43896 -0.035327 0.112875 0.070149 3.284253 13.358966 5.252707 5.47333 10.09408 -4.190299 -2.52794 0.261721 0.333032 0.04383 -0.061501 -0.029674 
0.009354 0.579569 -0.021151 -1.561571 -3.772922 1.437677 0.524747 -0.171202 0.152389 -0.392577 0.62609 -0.098064 -0.212547 3.522311 -3.074015 0.372954 0.169048 0.13998 0.00433 -0.129046 -0.027515 -0.433321 -0.384413 -12.348911 20.50947 -25.821918 -53.20887 11.311445 -30.926865 -0.679288 0.030269 0.051556 -0.019173 -0.650449 1.475514 12.916842 12.121759 36.663841 58.408207 9.015094 30.599627 3.522475 -0.105863 -0.079208 0.000264 -5.330129 0.357135 -0.522168 9.918385 -0.226818 0.34699 -1.502551 0.862748 0.392295 -0.028058 0.114102 0.063499 2.258943 13.634123 5.286807 5.927711 10.412475 -4.405181 -2.535134 0.208365 0.260367 0.035351 -0.049638 -0.024013 
